<svg width="232" height="231" viewBox="0 0 232 231" fill="none" xmlns="http://www.w3.org/2000/svg">
<g filter="url(#filter0_bd_665_22248)">
<path d="M66.333 97.6401C72.5932 70.2246 99.8926 53.0748 127.308 59.3349C154.724 65.595 171.873 92.8945 165.613 120.31C159.353 147.725 132.054 164.875 104.638 158.615C77.2228 152.355 60.0729 125.056 66.333 97.6401Z" fill="url(#paint0_linear_665_22248)" fill-opacity="0.3" shape-rendering="crispEdges"/>
<path d="M66.8205 97.7514C73.0191 70.6052 100.051 53.6237 127.197 59.8224C154.343 66.021 171.324 93.0524 165.126 120.199C158.927 147.345 131.896 164.326 104.75 158.128C77.6033 151.929 60.6219 124.898 66.8205 97.7514Z" stroke="url(#paint1_linear_665_22248)" shape-rendering="crispEdges"/>
</g>
<defs>
<filter id="filter0_bd_665_22248" x="0.560081" y="0.00978661" width="230.827" height="230.828" filterUnits="userSpaceOnUse" color-interpolation-filters="sRGB">
<feFlood flood-opacity="0" result="BackgroundImageFix"/>
<feGaussianBlur in="BackgroundImageFix" stdDeviation="4.0303"/>
<feComposite in2="SourceAlpha" operator="in" result="effect1_backgroundBlur_665_22248"/>
<feColorMatrix in="SourceAlpha" type="matrix" values="0 0 0 0 0 0 0 0 0 0 0 0 0 0 0 0 0 0 127 0" result="hardAlpha"/>
<feOffset dy="6.44848"/>
<feGaussianBlur stdDeviation="32.2424"/>
<feComposite in2="hardAlpha" operator="out"/>
<feColorMatrix type="matrix" values="0 0 0 0 0 0 0 0 0 0 0 0 0 0 0 0 0 0 0.05 0"/>
<feBlend mode="normal" in2="effect1_backgroundBlur_665_22248" result="effect2_dropShadow_665_22248"/>
<feBlend mode="normal" in="SourceGraphic" in2="effect2_dropShadow_665_22248" result="shape"/>
</filter>
<linearGradient id="paint0_linear_665_22248" x1="95.0327" y1="51.9651" x2="165.986" y2="109.22" gradientUnits="userSpaceOnUse">
<stop stop-color="white" stop-opacity="0.4"/>
<stop offset="1" stop-color="white" stop-opacity="0.1"/>
</linearGradient>
<linearGradient id="paint1_linear_665_22248" x1="98.7511" y1="52.8142" x2="185.545" y2="106.955" gradientUnits="userSpaceOnUse">
<stop stop-color="white" stop-opacity="0"/>
<stop offset="0.363596" stop-color="white" stop-opacity="0"/>
<stop offset="0.632693" stop-color="#FF668E" stop-opacity="0.1"/>
<stop offset="1" stop-color="#FF668E" stop-opacity="0.5"/>
</linearGradient>
</defs>
</svg>
