<svg width="136" height="49" viewBox="0 0 136 49" fill="none" xmlns="http://www.w3.org/2000/svg">
<g clip-path="url(#clip0_665_22212)">
<path d="M58.6822 14.627H63.9932L67.5153 25.2954L71.0069 14.627H74.6786L78.0484 24.6272L81.3878 14.627H86.6988L80.1114 34.3835H75.8002L72.7045 24.9905L69.5783 34.3835H65.267L58.6797 14.627H58.6822Z" fill="#20243D"/>
<path d="M87.3086 24.505C87.3086 18.6385 91.4371 14.3828 97.2962 14.3828C103.155 14.3828 107.223 18.6385 107.223 24.505C107.223 30.3715 103.155 34.6271 97.2962 34.6271C91.4371 34.6271 87.3086 30.3715 87.3086 24.505ZM102.214 24.505C102.214 21.5273 100.27 19.3982 97.2962 19.3982C94.3222 19.3982 92.3176 21.5273 92.3176 24.505C92.3176 27.4827 94.3222 29.6118 97.2962 29.6118C100.27 29.6118 102.214 27.4852 102.214 24.505Z" fill="#20243D"/>
<path d="M107.981 14.627H113.292L116.814 25.2954L120.306 14.627H123.977L127.347 24.6272L130.687 14.627H135.998L129.41 34.3835H125.099L122.003 24.9905L118.877 34.3835H114.566L107.979 14.627H107.981Z" fill="#20243D"/>
<path d="M36.6618 0H11.8476C5.30435 0 0 5.31104 0 11.8625V37.1375C0 43.689 5.30435 49 11.8476 49H36.6618C43.2051 49 48.5094 43.689 48.5094 37.1375V11.8625C48.5094 5.31104 43.2051 0 36.6618 0Z" fill="url(#paint0_linear_665_22212)"/>
<path d="M25.0801 26.3804L27.7851 34.2591L30.2211 26.3804H25.0801Z" fill="#CCCCCC"/>
<path d="M33.8472 14.6523L31.4721 22.3303L30.2212 26.3802L27.7852 34.2589H33.6392L39.9829 14.6523H33.8472Z" fill="white"/>
<path d="M27.2496 14.7437L24.6309 22.4191H29.1755L27.2496 14.7437Z" fill="#CCCCCC"/>
<path d="M27.2496 14.7462L26.5315 14.7437H21.9767L18.1019 25.7805L14.7829 14.7437H8.52539L14.7423 34.3477H20.5735L23.2531 26.469L24.6309 22.4191L27.2496 14.7462Z" fill="white"/>
</g>
<defs>
<linearGradient id="paint0_linear_665_22212" x1="2.33529e-07" y1="24.9623" x2="48.5094" y2="24.9623" gradientUnits="userSpaceOnUse">
<stop stop-color="#EF4E2A"/>
<stop offset="1" stop-color="#FE6422"/>
</linearGradient>
<clipPath id="clip0_665_22212">
<rect width="136" height="49" fill="white"/>
</clipPath>
</defs>
</svg>
