<svg width="232" height="232" viewBox="0 0 232 232" fill="none" xmlns="http://www.w3.org/2000/svg">
<g filter="url(#filter0_bd_665_22247)">
<path d="M66.003 98.3088C72.2631 70.8933 99.5625 53.7435 126.978 60.0036C154.394 66.2637 171.543 93.5632 165.283 120.979C159.023 148.394 131.724 165.544 104.308 159.284C76.8927 153.024 59.7429 125.724 66.003 98.3088Z" fill="url(#paint0_linear_665_22247)" fill-opacity="0.3" shape-rendering="crispEdges"/>
<path d="M66.4904 98.4201C72.6891 71.2739 99.7204 54.2924 126.867 60.4911C154.013 66.6897 170.994 93.7211 164.796 120.867C158.597 148.014 131.566 164.995 104.419 158.796C77.2732 152.598 60.2918 125.566 66.4904 98.4201Z" stroke="url(#paint1_linear_665_22247)" shape-rendering="crispEdges"/>
</g>
<defs>
<filter id="filter0_bd_665_22247" x="0.230003" y="0.678488" width="230.827" height="230.828" filterUnits="userSpaceOnUse" color-interpolation-filters="sRGB">
<feFlood flood-opacity="0" result="BackgroundImageFix"/>
<feGaussianBlur in="BackgroundImageFix" stdDeviation="4.0303"/>
<feComposite in2="SourceAlpha" operator="in" result="effect1_backgroundBlur_665_22247"/>
<feColorMatrix in="SourceAlpha" type="matrix" values="0 0 0 0 0 0 0 0 0 0 0 0 0 0 0 0 0 0 127 0" result="hardAlpha"/>
<feOffset dy="6.44848"/>
<feGaussianBlur stdDeviation="32.2424"/>
<feComposite in2="hardAlpha" operator="out"/>
<feColorMatrix type="matrix" values="0 0 0 0 0 0 0 0 0 0 0 0 0 0 0 0 0 0 0.05 0"/>
<feBlend mode="normal" in2="effect1_backgroundBlur_665_22247" result="effect2_dropShadow_665_22247"/>
<feBlend mode="normal" in="SourceGraphic" in2="effect2_dropShadow_665_22247" result="shape"/>
</filter>
<linearGradient id="paint0_linear_665_22247" x1="94.7026" y1="52.6338" x2="165.656" y2="109.889" gradientUnits="userSpaceOnUse">
<stop stop-color="white" stop-opacity="0.4"/>
<stop offset="1" stop-color="white" stop-opacity="0.1"/>
</linearGradient>
<linearGradient id="paint1_linear_665_22247" x1="98.421" y1="53.4829" x2="185.215" y2="107.624" gradientUnits="userSpaceOnUse">
<stop stop-color="white" stop-opacity="0"/>
<stop offset="0.363596" stop-color="white" stop-opacity="0"/>
<stop offset="0.632693" stop-color="#FF668E" stop-opacity="0.1"/>
<stop offset="1" stop-color="#FF668E" stop-opacity="0.5"/>
</linearGradient>
</defs>
</svg>
