<svg width="265" height="138" viewBox="0 0 265 138" fill="none" xmlns="http://www.w3.org/2000/svg">
<g filter="url(#filter0_bd_665_22240)">
<path d="M28 35.9851C28 29.9182 32.9182 25 38.9851 25H226.418C232.485 25 237.403 29.9182 237.403 35.9851V96.403C237.403 102.47 232.485 107.388 226.418 107.388H38.9851C32.9182 107.388 28 102.47 28 96.403V35.9851Z" fill="url(#paint0_linear_665_22240)" fill-opacity="0.5" shape-rendering="crispEdges"/>
<path d="M28.5 35.9851C28.5 30.1943 33.1943 25.5 38.9851 25.5H226.418C232.209 25.5 236.903 30.1943 236.903 35.9851V96.403C236.903 102.194 232.209 106.888 226.418 106.888H38.9851C33.1943 106.888 28.5 102.194 28.5 96.403V35.9851Z" stroke="url(#paint1_linear_665_22240)" stroke-opacity="0.7" shape-rendering="crispEdges"/>
</g>
<defs>
<filter id="filter0_bd_665_22240" x="0.537312" y="0.28358" width="264.328" height="137.314" filterUnits="userSpaceOnUse" color-interpolation-filters="sRGB">
<feFlood flood-opacity="0" result="BackgroundImageFix"/>
<feGaussianBlur in="BackgroundImageFix" stdDeviation="1.71642"/>
<feComposite in2="SourceAlpha" operator="in" result="effect1_backgroundBlur_665_22240"/>
<feColorMatrix in="SourceAlpha" type="matrix" values="0 0 0 0 0 0 0 0 0 0 0 0 0 0 0 0 0 0 127 0" result="hardAlpha"/>
<feOffset dy="2.74627"/>
<feGaussianBlur stdDeviation="13.7313"/>
<feComposite in2="hardAlpha" operator="out"/>
<feColorMatrix type="matrix" values="0 0 0 0 0 0 0 0 0 0 0 0 0 0 0 0 0 0 0.05 0"/>
<feBlend mode="normal" in2="effect1_backgroundBlur_665_22240" result="effect2_dropShadow_665_22240"/>
<feBlend mode="normal" in="SourceGraphic" in2="effect2_dropShadow_665_22240" result="shape"/>
</filter>
<linearGradient id="paint0_linear_665_22240" x1="64.6259" y1="25" x2="146.708" y2="126.929" gradientUnits="userSpaceOnUse">
<stop stop-color="white" stop-opacity="0.4"/>
<stop offset="1" stop-color="white" stop-opacity="0.1"/>
</linearGradient>
<linearGradient id="paint1_linear_665_22240" x1="72.4687" y1="25" x2="197.945" y2="135.39" gradientUnits="userSpaceOnUse">
<stop stop-color="white" stop-opacity="0"/>
<stop offset="0.363596" stop-color="white" stop-opacity="0"/>
<stop offset="0.632693" stop-color="#FF668E" stop-opacity="0.1"/>
<stop offset="1" stop-color="#FF668E" stop-opacity="0.5"/>
</linearGradient>
</defs>
</svg>
